<svg xmlns="http://www.w3.org/2000/svg" viewBox="0 0 32 32" fill="none">
  <!-- Body (document shape) -->
  <rect x="2" y="0" width="28" height="32" rx="5" fill="#6366f1"/>
  <!-- Folded corner -->
  <path d="M21 0v5a3 3 0 003 3h6" fill="#4f46e5"/>
  <!-- Left eye -->
  <ellipse cx="11" cy="13" rx="3" ry="3.2" fill="white"/>
  <ellipse cx="11.8" cy="12.6" rx="1.5" ry="1.6" fill="#1e1b4b"/>
  <ellipse cx="12.3" cy="11.9" rx="0.5" ry="0.5" fill="white"/>
  <!-- Right eye -->
  <ellipse cx="21" cy="13" rx="3" ry="3.2" fill="white"/>
  <ellipse cx="21.8" cy="12.6" rx="1.5" ry="1.6" fill="#1e1b4b"/>
  <ellipse cx="22.3" cy="11.9" rx="0.5" ry="0.5" fill="white"/>
  <!-- Mouth -->
  <path d="M12 20c1.5 2.5 5.5 2.5 7 0" stroke="white" stroke-width="1.5" stroke-linecap="round" fill="none"/>
  <!-- Blush -->
  <ellipse cx="7.5" cy="18" rx="2" ry="1.2" fill="#a5b4fc" opacity="0.5"/>
  <ellipse cx="24.5" cy="18" rx="2" ry="1.2" fill="#a5b4fc" opacity="0.5"/>
  <!-- Document lines -->
  <line x1="8" y1="25" x2="22" y2="25" stroke="#a5b4fc" stroke-width="1.2" stroke-linecap="round" opacity="0.6"/>
  <line x1="8" y1="28" x2="17" y2="28" stroke="#a5b4fc" stroke-width="1.2" stroke-linecap="round" opacity="0.6"/>
</svg>
